<svg width="80" height="80" viewBox="0 0 80 80" fill="none" xmlns="http://www.w3.org/2000/svg">
<path fill-rule="evenodd" clip-rule="evenodd" d="M0 0H5H75H80V5V75V80H75H5H0V75V5V0ZM32.9485 46.6949C32.9481 53.3618 32.9216 57.6882 32.8773 58.3045C32.6263 61.8072 31.3165 63.7039 28.7797 64.2385C28.0216 64.3982 26.603 64.387 25.7954 64.215C23.9834 63.8291 22.5825 62.7717 21.6315 61.0722L21.4158 60.6868L20.657 61.0462C18.5068 62.0647 16.5706 63.0003 16.5262 63.0425C16.4575 63.1077 17.158 64.3428 17.6949 65.1035C18.2611 65.9056 19.4517 67.0942 20.2723 67.6766C21.0782 68.2485 22.3222 68.8736 23.2711 69.1833C25.8971 70.0403 28.9701 70.0298 31.5996 69.1546C34.1191 68.3161 35.9986 66.7861 37.0691 64.7019C37.6569 63.5576 38.1588 61.9336 38.4216 60.3257C38.5247 59.694 38.5378 58.4999 38.5582 47.8475L38.5806 36.0678H35.7649H32.9491L32.9485 46.6949ZM46.4407 52.6441V69.2203H54.2738C59.321 69.2203 62.3412 69.1948 62.7654 69.1486C64.7079 68.937 66.4559 68.3575 67.7627 67.4918C68.6548 66.9008 69.8521 65.5873 70.5134 64.4742C71.6485 62.5636 72.1048 60.0095 71.6954 57.8584C71.3188 55.8795 70.0005 53.8345 68.4315 52.795C67.9999 52.509 67.3098 52.1449 66.6529 51.8567L66.4245 51.7565L66.958 51.446C68.8889 50.322 70.0323 48.7921 70.4961 46.7119C70.6628 45.9641 70.6555 43.7721 70.4836 42.9858C70.1057 41.2577 69.3691 39.8822 68.1811 38.6866C66.691 37.1869 64.6675 36.3877 61.7288 36.1382C61.2422 36.0969 58.007 36.0689 53.678 36.0685L46.4407 36.0678V52.6441ZM61.8305 41.4902C63.8632 41.9083 64.8858 43.1779 64.8894 45.2881C64.8914 46.4176 64.6261 47.1617 63.9761 47.8499C63.1907 48.6816 62.1872 49.1438 60.7119 49.3536C60.4405 49.3921 58.5028 49.4216 56.1864 49.4224L52.1356 49.4237V45.3898V41.3559L56.661 41.3568C60.8841 41.3576 61.2295 41.3666 61.8305 41.4902ZM61.2542 54.7867C63.7162 55.0872 65.2431 56.118 65.8055 57.8591C66.0455 58.6024 66.1053 59.876 65.9357 60.6381C65.7707 61.3797 65.3587 62.1599 64.8439 62.7057C64.1952 63.3933 63.5046 63.7185 62.3051 63.9011C61.7897 63.9796 60.7097 63.9992 56.8983 63.9996L52.1356 64V59.3559V54.7119L56.3898 54.7121C59.0637 54.7122 60.8707 54.7399 61.2542 54.7867Z" fill="#2F2F2F"/>
</svg>
