<svg width="100" height="100" viewBox="0 0 100 100" fill="none" xmlns="http://www.w3.org/2000/svg">
<rect width="100" height="100" fill="#E7E7E7"/>
<path fill-rule="evenodd" clip-rule="evenodd" d="M10 50V90H50H90V50V10H50H10V50ZM85.661 50V85.661H50H14.339V50V14.339H50H85.661V50ZM43.2875 57.0339C43.287 63.7007 43.2605 68.0272 43.2163 68.6435C42.9653 72.1462 41.6555 74.0429 39.1186 74.5775C38.3606 74.7372 36.942 74.726 36.1344 74.554C34.3224 74.1681 32.9215 73.1107 31.9704 71.4112L31.7548 71.0258L30.996 71.3852C28.8458 72.4037 26.9096 73.3393 26.8652 73.3815C26.7965 73.4466 27.4969 74.6818 28.0339 75.4425C28.6001 76.2446 29.7907 77.4332 30.6113 78.0156C31.4172 78.5875 32.6612 79.2125 33.6101 79.5222C36.2361 80.3793 39.3091 80.3688 41.9386 79.4936C44.4581 78.6551 46.3376 77.1251 47.4081 75.0409C47.9959 73.8966 48.4978 72.2726 48.7605 70.6647C48.8637 70.033 48.8768 68.8389 48.8972 58.1864L48.9196 46.4068H46.1039H43.2881L43.2875 57.0339ZM56.7797 62.9831V79.5593H64.6128C69.66 79.5593 72.6802 79.5338 73.1043 79.4876C75.0469 79.276 76.7948 78.6965 78.1017 77.8308C78.9938 77.2398 80.1911 75.9263 80.8523 74.8132C81.9875 72.9026 82.4438 70.3485 82.0344 68.1974C81.6578 66.2185 80.3395 64.1735 78.7705 63.134C78.3388 62.848 77.6487 62.4839 76.9919 62.1957L76.7635 62.0955L77.297 61.785C79.2279 60.661 80.3713 59.131 80.8351 57.0508C81.0018 56.303 80.9944 54.1111 80.8226 53.3247C80.4447 51.5967 79.7081 50.2212 78.5201 49.0256C77.03 47.5259 75.0065 46.7267 72.0678 46.4772C71.5812 46.4359 68.346 46.4079 64.0169 46.4075L56.7797 46.4068V62.9831ZM72.1695 51.8292C74.2022 52.2473 75.2247 53.5169 75.2284 55.6271C75.2304 56.7565 74.9651 57.5007 74.3151 58.1889C73.5297 59.0205 72.5262 59.4828 71.0508 59.6925C70.7795 59.7311 68.8418 59.7606 66.5254 59.7614L62.4746 59.7627V55.7288V51.6949L67 51.6958C71.2231 51.6966 71.5685 51.7056 72.1695 51.8292ZM71.5932 65.1257C74.0552 65.4262 75.5821 66.4569 76.1445 68.1981C76.3845 68.9414 76.4443 70.215 76.2747 70.9771C76.1097 71.7187 75.6977 72.4989 75.1828 73.0447C74.5342 73.7323 73.8436 74.0575 72.6441 74.2401C72.1287 74.3186 71.0487 74.3382 67.2373 74.3386L62.4746 74.339V69.6949V65.0508L66.7288 65.0511C69.4027 65.0512 71.2097 65.0789 71.5932 65.1257Z" fill="#2F2F2F"/>
</svg>
