<svg width="24" height="24" viewBox="0 0 24 24" fill="none" xmlns="http://www.w3.org/2000/svg">
<g clip-path="url(#clip0_532_291)">
<path d="M12.0001 0.28125C5.3735 0.28125 0 5.65375 0 12.2814C0 17.5833 3.43839 22.0815 8.2064 23.6682C8.80613 23.7793 9.0263 23.4079 9.0263 23.0909C9.0263 22.8048 9.01518 21.8595 9.01001 20.8568C5.67157 21.5827 4.96712 19.4409 4.96712 19.4409C4.42125 18.0539 3.63473 17.6851 3.63473 17.6851C2.54596 16.9403 3.7168 16.9556 3.7168 16.9556C4.92181 17.0402 5.55632 18.1922 5.55632 18.1922C6.6266 20.0267 8.36359 19.4964 9.04836 19.1897C9.15607 18.4141 9.46706 17.8848 9.81024 17.5851C7.14486 17.2817 4.34295 16.2527 4.34295 11.6546C4.34295 10.3445 4.81172 9.27397 5.57937 8.4336C5.45477 8.13135 5.04402 6.91083 5.69562 5.25791C5.69562 5.25791 6.70331 4.93539 8.9965 6.48797C9.95372 6.22208 10.9803 6.08874 12.0001 6.08417C13.0199 6.08874 14.0473 6.22208 15.0063 6.48797C17.2967 4.93539 18.303 5.25791 18.303 5.25791C18.9562 6.91083 18.5452 8.13135 18.4206 8.4336C19.1901 9.27397 19.6557 10.3445 19.6557 11.6546C19.6557 16.2636 16.8484 17.2785 14.1762 17.5756C14.6067 17.948 14.9902 18.6782 14.9902 19.7978C14.9902 21.4034 14.9763 22.6957 14.9763 23.0909C14.9763 23.4103 15.1923 23.7845 15.8006 23.6666C20.566 22.0781 24 17.5815 24 12.2814C24 5.65375 18.6273 0.28125 12.0001 0.28125ZM4.49443 17.3756C4.468 17.4353 4.3742 17.4531 4.28876 17.4122C4.20172 17.3731 4.15283 17.2918 4.18105 17.232C4.20688 17.1706 4.30088 17.1535 4.38772 17.1946C4.47495 17.2338 4.52463 17.3158 4.49443 17.3756ZM5.0847 17.9023C5.02747 17.9554 4.91559 17.9308 4.83968 17.8469C4.76119 17.7632 4.74648 17.6514 4.80451 17.5975C4.86353 17.5445 4.97203 17.5693 5.05072 17.6529C5.12921 17.7376 5.14451 17.8487 5.0847 17.9023ZM5.48965 18.5762C5.41612 18.6273 5.2959 18.5794 5.22158 18.4727C5.14805 18.366 5.14805 18.238 5.22317 18.1867C5.29769 18.1355 5.41612 18.1816 5.49144 18.2875C5.56476 18.396 5.56476 18.524 5.48965 18.5762ZM6.1745 19.3567C6.10873 19.4292 5.96863 19.4097 5.86609 19.3108C5.76117 19.214 5.73196 19.0767 5.79793 19.0042C5.8645 18.9314 6.00539 18.9519 6.10873 19.0501C6.21285 19.1466 6.24465 19.2849 6.1745 19.3567ZM7.05961 19.6201C7.0306 19.7141 6.89567 19.7569 6.75975 19.7169C6.62402 19.6758 6.5352 19.5657 6.56262 19.4707C6.59084 19.3761 6.72636 19.3316 6.86328 19.3743C6.9988 19.4153 7.08783 19.5246 7.05961 19.6201ZM8.0669 19.7319C8.07028 19.8309 7.95502 19.9129 7.81235 19.9147C7.66887 19.9179 7.55282 19.8378 7.55123 19.7405C7.55123 19.6405 7.6639 19.5592 7.80738 19.5568C7.95006 19.5541 8.0669 19.6335 8.0669 19.7319ZM9.05645 19.694C9.07354 19.7905 8.97438 19.8897 8.8327 19.9161C8.6934 19.9416 8.56443 19.882 8.54674 19.7862C8.52945 19.6872 8.6304 19.5881 8.7695 19.5624C8.91139 19.5378 9.03837 19.5958 9.05645 19.694Z" fill="#E7E7E7"/>
</g>
<defs>
<clipPath id="clip0_532_291">
<rect width="24" height="23.4375" fill="white" transform="translate(0 0.28125)"/>
</clipPath>
</defs>
</svg>
