<svg width="120" height="120" viewBox="0 0 120 120" fill="none" xmlns="http://www.w3.org/2000/svg">
<path fill-rule="evenodd" clip-rule="evenodd" d="M0 60V120H60H120V60V0H60H0V60ZM113.492 60V113.492H60H6.50847V60V6.50847H60H113.492V60ZM49.9312 70.5508C49.9306 80.5511 49.8908 87.0408 49.8245 87.9653C49.4479 93.2193 47.4833 96.0644 43.678 96.8662C42.5409 97.1058 40.413 97.089 39.2016 96.831C36.4836 96.2521 34.3822 94.6661 32.9557 92.1168L32.6322 91.5387L31.494 92.0777C28.2686 93.6055 25.3644 95.009 25.2977 95.0722C25.1947 95.17 26.2454 97.0227 27.0508 98.1638C27.9002 99.3669 29.6861 101.15 30.917 102.023C32.1258 102.881 33.9918 103.819 35.4152 104.283C39.3541 105.569 43.9636 105.553 47.9079 104.24C51.6871 102.983 54.5063 100.688 56.1122 97.5613C56.9939 95.8449 57.7466 93.4089 58.1408 90.997C58.2956 90.0494 58.3152 88.2584 58.3457 72.2797L58.3794 54.6102H54.1558H49.9322L49.9312 70.5508ZM70.1695 79.4746V104.339H81.9192C89.49 104.339 94.0203 104.301 94.6565 104.231C97.5704 103.914 100.192 103.045 102.153 101.746C103.491 100.86 105.287 98.8895 106.279 97.2198C107.981 94.3539 108.666 90.5227 108.052 87.2961C107.487 84.3278 105.509 81.2602 103.156 79.7009C102.508 79.272 101.473 78.7259 100.488 78.2936L100.145 78.1432L100.946 77.6774C103.842 75.9914 105.557 73.6966 106.253 70.5763C106.503 69.4546 106.492 66.1666 106.234 64.9871C105.667 62.395 104.562 60.3317 102.78 58.5384C100.545 56.2888 97.5098 55.0901 93.1017 54.7158C92.3717 54.6539 87.519 54.6118 81.0254 54.6112L70.1695 54.6102V79.4746ZM93.2542 62.7437C96.3033 63.371 97.8371 65.2753 97.8426 68.4407C97.8456 70.1348 97.4476 71.251 96.4727 72.2833C95.2945 73.5308 93.7893 74.2242 91.5763 74.5388C91.1692 74.5967 88.2627 74.6409 84.7881 74.642L78.7119 74.6441V68.5932V62.5424L85.5 62.5437C91.8347 62.5449 92.3527 62.5583 93.2542 62.7437ZM92.3898 82.6885C96.0828 83.1394 98.3731 84.6854 99.2167 87.2971C99.5768 88.4121 99.6664 90.3225 99.4121 91.4656C99.1645 92.5781 98.5465 93.7484 97.7743 94.567C96.8013 95.5985 95.7654 96.0862 93.9661 96.3602C93.193 96.4779 91.573 96.5074 85.8559 96.5079L78.7119 96.5085V89.5424V82.5763L85.0932 82.5766C89.1041 82.5768 91.8145 82.6184 92.3898 82.6885Z" fill="#E7E7E7"/>
</svg>
